<?xml version="1.0" standalone="no"?>
<!DOCTYPE svg PUBLIC "-//W3C//DTD SVG 20010904//EN"
 "http://www.w3.org/TR/2001/REC-SVG-20010904/DTD/svg10.dtd">
<svg version="1.0" xmlns="http://www.w3.org/2000/svg"
 width="512.000000pt" height="512.000000pt" viewBox="0 0 512.000000 512.000000"
 preserveAspectRatio="xMidYMid meet">

<g transform="translate(0.000000,512.000000) scale(0.100000,-0.100000)"
fill="#000000" stroke="none">
<path d="M1095 4860 c-216 -46 -374 -130 -532 -283 -142 -138 -237 -300 -291
-495 l-27 -97 0 -1420 0 -1420 23 -89 c12 -49 37 -123 55 -165 38 -86 123
-224 160 -260 l25 -22 473 136 c261 74 481 138 489 141 9 3 -12 17 -54 35
-247 106 -455 339 -539 604 -47 149 -48 185 -45 1085 3 832 4 846 25 922 98
346 336 600 658 701 152 48 174 48 1090 45 l860 -3 85 -24 c356 -98 616 -362
713 -725 22 -80 22 -89 22 -957 l0 -876 65 18 c36 11 170 49 298 86 l233 66
-3 1066 -4 1066 -27 94 c-119 406 -428 694 -830 772 -93 18 -160 19 -1465 18
-1301 0 -1371 -1 -1457 -19z"/>
<path d="M1795 3960 c-66 -3 -140 -12 -165 -19 -170 -48 -331 -183 -409 -343
-74 -151 -71 -106 -71 -1034 0 -794 1 -834 20 -908 30 -119 82 -209 175 -301
92 -93 182 -145 301 -175 70 -18 112 -20 429 -20 l352 0 748 214 c411 118 751
220 756 228 5 7 15 43 24 80 22 100 23 1684 0 1773 -60 236 -251 429 -487 492
-56 15 -146 17 -808 18 -410 1 -799 -1 -865 -5z m1760 -279 c205 -93 137 -404
-88 -404 -221 0 -292 299 -94 398 61 30 125 32 182 6z m-849 -242 c431 -76
744 -446 744 -880 0 -385 -249 -727 -616 -847 -101 -33 -204 -45 -327 -39
-128 6 -213 28 -334 86 -487 234 -653 853 -350 1301 45 66 164 187 227 230
109 74 243 129 367 150 71 12 221 12 289 -1z"/>
<path d="M2480 3130 c-190 -29 -353 -148 -434 -314 -43 -89 -59 -160 -59 -256
0 -253 154 -463 400 -546 70 -23 88 -26 193 -22 141 6 222 33 325 111 279 209
307 616 60 862 -128 128 -314 191 -485 165z"/>
</g>
</svg>
